<svg width="24" height="24" viewBox="0 0 24 24" fill="none" xmlns="http://www.w3.org/2000/svg">
<path d="M5.48958 4C3.57227 4 2 5.57227 2 7.48958V17.3333H22V7.48958C22 5.57227 20.4277 4 18.5104 4H5.48958ZM5.90625 5.66667H9.00521C10.1706 5.66667 11.1667 6.65625 11.1667 7.90625V9.83333H3.66667V7.90625C3.66667 6.65625 4.65625 5.66667 5.90625 5.66667ZM15.0729 5.66667H18.1719C19.3372 5.66667 20.3333 6.65625 20.3333 7.90625V9.83333H12.8333V7.90625C12.8333 6.65625 13.8229 5.66667 15.0729 5.66667ZM2 18.1667V19.8333H4.5V18.1667H2ZM19.5 18.1667V19.8333H22V18.1667H19.5Z" fill="#69B99D"/>
</svg>
