<svg width="24" height="24" viewBox="0 0 24 24" fill="none" xmlns="http://www.w3.org/2000/svg">
<g clip-path="url(#clip0_2018_1123)">
<path d="M12 24C18.612 24 24 18.624 24 12C24 5.388 18.612 0 12 0C5.376 0 0 5.388 0 12C0 18.5117 5.19531 23.8174 11.6643 23.9954L12 24Z" fill="#69B99D"/>
<path d="M13.7601 15.1649C14.0601 15.4549 14.0601 15.9249 13.7701 16.2249C13.6201 16.3749 13.4301 16.4449 13.2301 16.4449C13.0401 16.4449 12.8501 16.3749 12.7101 16.2249L9.22006 12.7549C9.08006 12.6149 9.00006 12.4249 9.00006 12.2249C9.00006 12.0249 9.08006 11.8349 9.22006 11.6949L12.7101 8.22494C13.0001 7.92494 13.4701 7.92494 13.7701 8.22494C14.0601 8.51494 14.0601 8.99494 13.7601 9.28494L10.8101 12.2249L13.7601 15.1649Z" fill="#FEFEFF"/>
</g>
<defs>
<clipPath id="clip0_2018_1123">
<rect width="24" height="24" fill="white"/>
</clipPath>
</defs>
</svg>
