<svg width="24" height="24" viewBox="0 0 24 24" fill="none" xmlns="http://www.w3.org/2000/svg">
<g clip-path="url(#clip0_2024_1455)">
<path d="M12 24C18.612 24 24 18.624 24 12C24 5.388 18.612 0 12 0C5.376 0 0 5.388 0 12C0 18.5117 5.19531 23.8174 11.6643 23.9954L12 24Z" fill="#69B99D"/>
<path d="M13.7601 15.1648C14.0601 15.4548 14.0601 15.9248 13.7701 16.2248C13.6201 16.3748 13.4301 16.4448 13.2301 16.4448C13.0401 16.4448 12.8501 16.3748 12.7101 16.2248L9.22006 12.7548C9.08006 12.6148 9.00006 12.4248 9.00006 12.2248C9.00006 12.0248 9.08006 11.8348 9.22006 11.6948L12.7101 8.22482C13.0001 7.92482 13.4701 7.92482 13.7701 8.22482C14.0601 8.51482 14.0601 8.99482 13.7601 9.28482L10.8101 12.2248L13.7601 15.1648Z" fill="#FEFEFF"/>
</g>
<defs>
<clipPath id="clip0_2024_1455">
<rect width="24" height="24" fill="white"/>
</clipPath>
</defs>
</svg>
