<svg width="139" height="30" viewBox="0 0 139 30" fill="none" xmlns="http://www.w3.org/2000/svg">
<path d="M131.711 21.0469H128.809L128.827 19.1484H131.711C132.493 19.1484 133.149 18.9844 133.679 18.6562C134.209 18.3223 134.61 17.8447 134.881 17.2236C135.152 16.5967 135.287 15.8467 135.287 14.9736V14.3145C135.287 13.6406 135.21 13.0459 135.056 12.5303C134.902 12.0146 134.674 11.5811 134.372 11.2295C134.077 10.8779 133.71 10.6113 133.273 10.4297C132.835 10.248 132.333 10.1572 131.766 10.1572H128.753V8.25H131.766C132.666 8.25 133.485 8.39355 134.225 8.68066C134.97 8.96777 135.614 9.38086 136.156 9.91992C136.705 10.4531 137.124 11.0918 137.413 11.8359C137.709 12.5801 137.857 13.4121 137.857 14.332V14.9736C137.857 15.8877 137.709 16.7197 137.413 17.4697C137.124 18.2139 136.705 18.8525 136.156 19.3857C135.614 19.9189 134.967 20.3291 134.215 20.6162C133.464 20.9033 132.629 21.0469 131.711 21.0469ZM130.232 8.25V21.0469H127.69V8.25H130.232Z" fill="#24AB70"/>
<path d="M125.99 19.1484V21.0469H119.224V19.1484H125.99ZM119.992 8.25V21.0469H117.45V8.25H119.992Z" fill="#24AB70"/>
<path d="M114.705 8.25V21.0469H112.163V8.25H114.705Z" fill="#24AB70"/>
<path d="M107.043 8.25H109.585V16.749C109.585 17.7275 109.363 18.5508 108.919 19.2188C108.476 19.8809 107.872 20.3818 107.108 20.7217C106.344 21.0557 105.475 21.2227 104.502 21.2227C103.516 21.2227 102.638 21.0557 101.868 20.7217C101.097 20.3818 100.494 19.8809 100.056 19.2188C99.6187 18.5508 99.3999 17.7275 99.3999 16.749V8.25H101.942V16.749C101.942 17.3467 102.046 17.8359 102.256 18.2168C102.465 18.5918 102.761 18.8701 103.143 19.0518C103.525 19.2334 103.978 19.3242 104.502 19.3242C105.032 19.3242 105.484 19.2334 105.86 19.0518C106.242 18.8701 106.535 18.5918 106.738 18.2168C106.942 17.8359 107.043 17.3467 107.043 16.749V8.25Z" fill="#24AB70"/>
<path d="M92.6993 15.3428H89.2612L89.2427 13.6377H92.191C92.6962 13.6377 93.1183 13.5703 93.4572 13.4355C93.7961 13.3008 94.0518 13.1045 94.2243 12.8467C94.403 12.5889 94.4923 12.2754 94.4923 11.9062C94.4923 11.4961 94.4091 11.1621 94.2428 10.9043C94.0826 10.6465 93.83 10.459 93.4849 10.3418C93.1399 10.2188 92.7024 10.1572 92.1725 10.1572H90.0838V21.0469H87.5422V8.25H92.1725C92.9365 8.25 93.6174 8.32031 94.215 8.46094C94.8189 8.5957 95.3303 8.80664 95.7493 9.09375C96.1682 9.38086 96.4855 9.74121 96.7012 10.1748C96.923 10.6084 97.0339 11.124 97.0339 11.7217C97.0339 12.249 96.9045 12.7354 96.6457 13.1807C96.3931 13.6201 96.0019 13.9775 95.472 14.2529C94.9483 14.5283 94.2828 14.6865 93.4757 14.7275L92.6993 15.3428ZM92.5884 21.0469H88.5126L89.5755 19.1484H92.5884C93.0937 19.1484 93.5096 19.0693 93.8361 18.9111C94.1688 18.7529 94.4153 18.5361 94.5755 18.2607C94.7419 17.9795 94.825 17.6572 94.825 17.2939C94.825 16.8955 94.7511 16.5498 94.6032 16.2568C94.4615 15.9639 94.2335 15.7383 93.9193 15.5801C93.6112 15.4219 93.2046 15.3428 92.6993 15.3428H90.0561L90.0745 13.6377H93.4387L94.021 14.2969C94.7973 14.3027 95.4289 14.4492 95.9156 14.7363C96.4085 15.0234 96.7721 15.3926 97.0062 15.8438C97.2403 16.2949 97.3574 16.7812 97.3574 17.3027C97.3574 18.123 97.1695 18.8115 96.7936 19.3682C96.4239 19.9248 95.8817 20.3438 95.167 20.625C94.4584 20.9062 93.5989 21.0469 92.5884 21.0469Z" fill="#24AB70"/>
<path d="M15.7861 16.749C15.7861 17.3466 15.8902 17.836 16.0996 18.2168C16.3091 18.5918 16.6053 18.8701 16.9873 19.0518C17.3693 19.2334 17.8221 19.3242 18.3457 19.3242C18.8755 19.3242 19.3283 19.2333 19.7041 19.0518C20.0861 18.8701 20.3787 18.5917 20.582 18.2168C20.7854 17.8359 20.8877 17.3467 20.8877 16.749V8.25H23.4287V16.749C23.4287 17.7275 23.2073 18.5508 22.7637 19.2188C22.3201 19.8808 21.7161 20.3818 20.9521 20.7217C20.1881 21.0557 19.3192 21.2227 18.3457 21.2227C17.36 21.2226 16.482 21.0556 15.7119 20.7217C14.9418 20.3818 14.3379 19.8808 13.9004 19.2188C13.4629 18.5508 13.2441 17.7275 13.2441 16.749V8.25H15.7861V16.749ZM2.54199 13.5322H8.27148V8.25H10.8135V21.0469H8.27148V15.4307H2.54199V21.0469H0V8.25H2.54199V13.5322ZM32.8281 17.8828L36.4971 8.25H39.8154V21.0469H37.2734V17.1006L37.5225 11.2783L33.7061 21.0469H31.9414L28.127 11.2676L28.3828 17.1006V21.0469H25.8408V8.25H29.1504L32.8281 17.8828ZM53.8262 21.0469H51.1279L50.1172 18.1992H45.0918L44.085 21.0469H41.3955L46.4238 8.25H48.7715L53.8262 21.0469ZM45.7656 16.292H49.4395L47.5977 11.1055L45.7656 16.292Z" fill="#24AB70"/>
<path d="M15.7861 16.749C15.7861 17.3466 15.8902 17.836 16.0996 18.2168C16.3091 18.5918 16.6053 18.8701 16.9873 19.0518C17.3693 19.2334 17.8221 19.3242 18.3457 19.3242C18.8755 19.3242 19.3283 19.2333 19.7041 19.0518C20.0861 18.8701 20.3787 18.5917 20.582 18.2168C20.7854 17.8359 20.8877 17.3467 20.8877 16.749V8.25H23.4287V16.749C23.4287 17.7275 23.2073 18.5508 22.7637 19.2188C22.3201 19.8808 21.7161 20.3818 20.9521 20.7217C20.1881 21.0557 19.3192 21.2227 18.3457 21.2227C17.36 21.2226 16.482 21.0556 15.7119 20.7217C14.9418 20.3818 14.3379 19.8808 13.9004 19.2188C13.4629 18.5508 13.2441 17.7275 13.2441 16.749V8.25H15.7861V16.749ZM2.54199 13.5322H8.27148V8.25H10.8135V21.0469H8.27148V15.4307H2.54199V21.0469H0V8.25H2.54199V13.5322ZM32.8281 17.8828L36.4971 8.25H39.8154V21.0469H37.2734V17.1006L37.5225 11.2783L33.7061 21.0469H31.9414L28.127 11.2676L28.3828 17.1006V21.0469H25.8408V8.25H29.1504L32.8281 17.8828ZM53.8262 21.0469H51.1279L50.1172 18.1992H45.0918L44.085 21.0469H41.3955L46.4238 8.25H48.7715L53.8262 21.0469ZM45.7656 16.292H49.4395L47.5977 11.1055L45.7656 16.292Z" stroke="black"/>
<path d="M63.2073 18.0886C64.2636 16.6672 65.7542 15.5893 67.4768 15.0011C65.7579 14.4157 64.2701 13.3414 63.2154 11.9241C62.1607 10.5068 61.5902 8.81517 61.5814 7.07889C61.5814 7.06982 61.5796 7.06252 61.5796 7.05598L61.5814 0.000732422H56.7841V30H61.5814L61.5796 22.9447C61.5796 22.9384 61.5814 22.9311 61.5814 22.9218C61.5911 21.1906 62.1585 19.5037 63.2073 18.0886Z" fill="#24AB70"/>
<path d="M70.4899 14.4637C72.5516 14.4491 74.5245 13.6641 75.9827 12.2782C77.441 10.8922 78.2677 9.01654 78.2843 7.05601V0.00276944L73.4804 4.56841V7.05525C73.4923 7.43577 73.4237 7.81468 73.2788 8.16952C73.1339 8.52438 72.9156 8.84798 72.6368 9.12113C72.358 9.39429 72.0244 9.61143 71.6557 9.75972C71.287 9.90802 70.8908 9.98442 70.4905 9.98442C70.0902 9.98442 69.6939 9.90802 69.3253 9.75972C68.9566 9.61143 68.623 9.39429 68.3441 9.12113C68.0653 8.84798 67.847 8.52438 67.7021 8.16952C67.5572 7.81468 67.4887 7.43577 67.5006 7.05525V4.56111L62.7094 0V7.05525C62.7211 9.01503 63.5443 10.8915 65.0007 12.2781C66.457 13.6648 68.4292 14.45 70.4899 14.4637Z" fill="black"/>
<path d="M70.49 15.537C68.4293 15.5507 66.4572 16.3357 65.0008 17.7222C63.5444 19.1088 62.7211 20.9851 62.7091 22.9447V30L67.5003 25.4389V22.9447C67.4884 22.5642 67.557 22.1853 67.7019 21.8305C67.8468 21.4756 68.0651 21.152 68.3439 20.8789C68.6227 20.6057 68.9563 20.3886 69.325 20.2403C69.6937 20.092 70.0899 20.0156 70.4902 20.0156C70.8905 20.0156 71.2868 20.092 71.6555 20.2403C72.0241 20.3886 72.3578 20.6057 72.6366 20.8789C72.9154 21.152 73.1337 21.4756 73.2786 21.8305C73.4235 22.1853 73.492 22.5642 73.4801 22.9447V25.4316L78.2841 29.9975V22.9447C78.2674 20.9842 77.4408 19.1085 75.9825 17.7226C74.5242 16.3367 72.5516 15.5517 70.49 15.537Z" fill="black"/>
<path d="M84.2075 0.00274658H79.4131V7.05524C79.4072 8.79535 78.8379 10.4915 77.7826 11.9131C76.7273 13.3346 75.2371 14.4126 73.5148 15.0004C75.2372 15.5878 76.7274 16.6656 77.7828 18.0871C78.8381 19.5085 79.4074 21.2047 79.4131 22.9447V29.9975H84.2075V0.00274658Z" fill="#24AB70"/>
</svg>
