<svg width="24" height="24" viewBox="0 0 24 24" fill="none" xmlns="http://www.w3.org/2000/svg">
<g clip-path="url(#clip0_2018_1132)">
<path d="M12 24C18.612 24 24 18.624 24 12C24 5.388 18.612 0 12 0C5.376 0 0 5.388 0 12C0 18.5117 5.19531 23.8174 11.6643 23.9954L12 24Z" fill="#69B99D"/>
<path d="M10.2263 9.28C9.92627 8.99 9.92627 8.52 10.2163 8.22C10.3663 8.07 10.5563 8 10.7563 8C10.9463 8 11.1363 8.07 11.2763 8.22L14.7663 11.69C14.9063 11.83 14.9863 12.02 14.9863 12.22C14.9863 12.42 14.9063 12.61 14.7663 12.75L11.2763 16.22C10.9863 16.52 10.5163 16.52 10.2163 16.22C9.92627 15.93 9.92627 15.45 10.2263 15.16L13.1763 12.22L10.2263 9.28Z" fill="#FEFEFF"/>
</g>
<defs>
<clipPath id="clip0_2018_1132">
<rect width="24" height="24" fill="white"/>
</clipPath>
</defs>
</svg>
