<svg width="23" height="20" viewBox="0 0 23 20" fill="none" xmlns="http://www.w3.org/2000/svg">
<path d="M10.6667 0V3.38542C8.14388 3.69466 6.19727 5.39388 5.74479 7.5H17.2552C16.8027 5.39388 14.8561 3.69466 12.3333 3.38542V0H10.6667ZM4.83333 8.33333V10H18.1667V8.33333H4.83333ZM8.16667 11.6667C7.70768 11.6667 7.33333 12.041 7.33333 12.5C7.33333 12.959 7.70768 13.3333 8.16667 13.3333C8.62565 13.3333 9 12.959 9 12.5C9 12.041 8.62565 11.6667 8.16667 11.6667ZM11.5 11.6667C11.041 11.6667 10.6667 12.041 10.6667 12.5C10.6667 12.959 11.041 13.3333 11.5 13.3333C11.959 13.3333 12.3333 12.959 12.3333 12.5C12.3333 12.041 11.959 11.6667 11.5 11.6667ZM14.8333 11.6667C14.3743 11.6667 14 12.041 14 12.5C14 12.959 14.3743 13.3333 14.8333 13.3333C15.2923 13.3333 15.6667 12.959 15.6667 12.5C15.6667 12.041 15.2923 11.6667 14.8333 11.6667ZM6.5 15C6.04102 15 5.66667 15.3743 5.66667 15.8333C5.66667 16.2923 6.04102 16.6667 6.5 16.6667C6.95898 16.6667 7.33333 16.2923 7.33333 15.8333C7.33333 15.3743 6.95898 15 6.5 15ZM9.83333 15C9.37435 15 9 15.3743 9 15.8333C9 16.2923 9.37435 16.6667 9.83333 16.6667C10.2923 16.6667 10.6667 16.2923 10.6667 15.8333C10.6667 15.3743 10.2923 15 9.83333 15ZM13.1667 15C12.7077 15 12.3333 15.3743 12.3333 15.8333C12.3333 16.2923 12.7077 16.6667 13.1667 16.6667C13.6257 16.6667 14 16.2923 14 15.8333C14 15.3743 13.6257 15 13.1667 15ZM16.5 15C16.041 15 15.6667 15.3743 15.6667 15.8333C15.6667 16.2923 16.041 16.6667 16.5 16.6667C16.959 16.6667 17.3333 16.2923 17.3333 15.8333C17.3333 15.3743 16.959 15 16.5 15ZM4.83333 18.3333C4.37435 18.3333 4 18.7077 4 19.1667C4 19.6257 4.37435 20 4.83333 20C5.29232 20 5.66667 19.6257 5.66667 19.1667C5.66667 18.7077 5.29232 18.3333 4.83333 18.3333ZM8.16667 18.3333C7.70768 18.3333 7.33333 18.7077 7.33333 19.1667C7.33333 19.6257 7.70768 20 8.16667 20C8.62565 20 9 19.6257 9 19.1667C9 18.7077 8.62565 18.3333 8.16667 18.3333ZM11.5 18.3333C11.041 18.3333 10.6667 18.7077 10.6667 19.1667C10.6667 19.6257 11.041 20 11.5 20C11.959 20 12.3333 19.6257 12.3333 19.1667C12.3333 18.7077 11.959 18.3333 11.5 18.3333ZM14.8333 18.3333C14.3743 18.3333 14 18.7077 14 19.1667C14 19.6257 14.3743 20 14.8333 20C15.2923 20 15.6667 19.6257 15.6667 19.1667C15.6667 18.7077 15.2923 18.3333 14.8333 18.3333ZM18.1667 18.3333C17.7077 18.3333 17.3333 18.7077 17.3333 19.1667C17.3333 19.6257 17.7077 20 18.1667 20C18.6257 20 19 19.6257 19 19.1667C19 18.7077 18.6257 18.3333 18.1667 18.3333Z" fill="#69B99D"/>
</svg>
